<?xml version="1.0" encoding="UTF-8"?>
<svg xmlns="http://www.w3.org/2000/svg" viewBox="0 0 1750.81 1868.49">
  <defs>
    <style>
      .cls-1 {
        letter-spacing: 0em;
      }

      .cls-1, .cls-2 {
        font-family: Montserrat-Regular, Montserrat;
      }

      .cls-3 {
        letter-spacing: -.02em;
      }

      .cls-3, .cls-4 {
        font-family: Montserrat-ExtraBold, Montserrat;
        font-weight: 700;
      }

      .cls-5 {
        font-family: SanDiegoLight, 'San Diego';
      }

      .cls-6 {
        font-size: 58px;
        letter-spacing: .53em;
      }

      .cls-7 {
        font-size: 119px;
      }

      .cls-8, .cls-9 {
        fill: #b7b7b7;
      }

      .cls-9, .cls-10 {
        stroke: #fff;
        stroke-linecap: round;
        stroke-linejoin: round;
        stroke-width: 5px;
      }

      .cls-11, .cls-10 {
        fill: #202b3a;
      }

      .cls-12 {
        font-family: SanDiegoMedium, 'San Diego';
      }
    </style>
  </defs>
  <g id="Layer_6" data-name="Layer 6">
    <text class="cls-7" transform="translate(747.49 872.56)"><tspan class="cls-3" x="0" y="0">C</tspan><tspan class="cls-4" x="86.04" y="0">ORNER</tspan><tspan class="cls-1" x="538.71" y="0">ST</tspan><tspan class="cls-2" x="677.82" y="0">ONE</tspan></text>
    <g>
      <path d="M589.54,822.51c1.56.7,2.55,2.28,2.5,3.99l-4.76,169.28c0-.6-.13-1.21-.4-1.79-.99-2.12-3.51-3.04-5.63-2.04l-8.18,3.82-214.07-100.67,1.9-1.07c1.34-.75,2.16-2.16,2.16-3.7v-2.68l215.93,101.55,4.5-160.12-67.22-30.2c.51.22,1.07.34,1.65.34.36,0,.71-.05,1.07-.14l11.66-3.02,58.89,26.45Z"/>
      <path d="M592.01,776.39c.02.16.03.32.03.47,0-.18-.01-.35-.04-.53v.06Z"/>
      <path d="M592,776.33c.03.18.04.35.04.53,0,.16-.01.32-.03.48,0,.02,0,.04-.01.06-.01.15-.04.3-.08.45-.03.13-.07.26-.11.39-.03.07-.05.13-.08.2-.04.11-.09.21-.14.31,0,.01-.01.02-.02.04-.06.12-.13.24-.21.36-.01.03-.03.05-.05.07-.08.13-.18.26-.29.39-.11.12-.22.24-.35.36-.12.11-.25.22-.39.32-.1.08-.2.15-.31.21-.09.05-.17.09-.26.14-.26.13-.54.24-.84.32l-.09.02c-.91.21-1.88.12-2.75-.28l-10.73-4.97,11.44-2.97c2.27-.59,4.58.77,5.16,3.03.04.18.08.36.1.54Z"/>
      <path d="M592.01,777.34c.02-.16.03-.32.03-.48,0,.16-.01.32-.03.48Z"/>
      <path d="M587.25,733.72l4.75,42.61c-.02-.18-.06-.36-.1-.54-.58-2.26-2.89-3.62-5.16-3.03l-11.44,2.97-208.64-96.65-.91,42.89,152.55,68.54-1.44.37c-2.26.59-3.62,2.9-3.03,5.17.33,1.28,1.22,2.27,2.34,2.79l-156.45-70.29c-1.55-.7-2.53-2.25-2.49-3.95l1.1-52.18c.03-1.42.78-2.74,1.99-3.5,1.21-.75,2.73-.85,4.02-.25l218.42,101.19-3.66-32.82-270.95-124.66v-6.61c0-1.44-.73-2.78-1.94-3.56-.17-.11-.34-.2-.52-.29l279.12,128.42c1.35.62,2.28,1.9,2.44,3.38Z"/>
      <path d="M591.92,777.85c.04-.15.07-.3.08-.45-.01.15-.04.3-.08.45Z"/>
      <path d="M591.73,778.44c.03-.07.05-.13.08-.2-.03.07-.05.13-.08.2Z"/>
      <path d="M591.59,778.75c.05-.1.1-.2.14-.31-.04.1-.09.21-.14.31Z"/>
      <path d="M591.36,779.15c.08-.12.15-.24.21-.36-.06.12-.13.24-.21.36Z"/>
      <path d="M591.02,779.61c.11-.13.21-.26.29-.39-.08.14-.18.27-.29.39Z"/>
      <path d="M590.67,779.97c.13-.12.24-.24.35-.36-.11.13-.22.25-.35.36Z"/>
      <path d="M590.28,780.29c.14-.1.27-.21.39-.32-.12.12-.25.23-.39.32Z"/>
      <path d="M589.71,780.64c.09-.05.17-.09.26-.14-.08.05-.17.1-.26.14Z"/>
      <path d="M588.78,780.98l-58.13,15.08-12.35-5.55,57-14.78,10.73,4.97c.87.4,1.84.49,2.75.28Z"/>
      <path d="M587.28,995.78c0,.06,0,.12-.01.19,0,.14-.01.27-.03.4-.01.03-.01.05-.01.07-.03.17-.07.34-.12.5h0c-.04.17-.1.32-.16.47-.09.22-.19.42-.32.62-.07.11-.14.21-.21.3-.1.14-.22.27-.34.4-.11.11-.22.22-.34.31-.15.13-.31.25-.49.36-.68.4-1.44.62-2.21.62-.61,0-1.23-.14-1.8-.41l-8.17-3.84,8.18-3.82c2.12-1,4.64-.08,5.63,2.04.27.58.4,1.19.4,1.79Z"/>
      <path d="M587.24,996.37c.02-.13.03-.26.03-.4,0,.13-.01.27-.03.4Z"/>
      <path d="M587.11,996.94c.05-.16.09-.33.12-.5-.03.17-.07.34-.12.5Z"/>
      <path d="M586.95,997.41c.06-.15.12-.3.16-.46-.04.16-.1.31-.16.46Z"/>
      <path d="M586.42,998.33c.07-.09.14-.19.21-.3-.06.1-.13.2-.21.3Z"/>
      <path d="M586.08,998.73c.12-.13.24-.26.34-.4-.1.14-.21.27-.34.4Z"/>
      <path d="M585.74,999.04c.12-.09.23-.2.34-.31-.1.11-.22.22-.34.31Z"/>
      <path d="M585.25,999.4c-.13.08-.27.15-.41.22l-279.13,130.44c-.57.26-1.18.39-1.79.39s-1.21-.13-1.78-.38L19.09,999.64c.55.25,1.15.38,1.74.38s1.22-.13,1.78-.4l8.3-3.85,272.99,125.78,269.17-125.78,8.17,3.84c.57.27,1.19.41,1.8.41.77,0,1.53-.22,2.21-.62Z"/>
      <path class="cls-8" d="M583.49,829.08l-4.5,160.12-215.93-101.55v-74.63l105.73,44.68c.1.05.21.09.31.13l47.67,20.15c1.27.54,2.7.43,3.87-.29,1.16-.72,1.91-1.95,2.01-3.32l2.34-33.75c.01-.14.02-.28.02-.41,0-.18-.01-.35-.04-.53,0-.03,0-.06,0-.09-.02-.13-.04-.27-.08-.4-.01-.03-.01-.05-.02-.08-.16-.59-.44-1.12-.8-1.56-.07-.09-.15-.18-.23-.26-.08-.09-.16-.17-.25-.24-.17-.16-.35-.29-.54-.41-.21-.14-.43-.25-.66-.35l-214.23-87.86v-136.05l270.95,124.66,3.66,32.82-218.42-101.19c-1.29-.6-2.81-.5-4.02.25-1.21.76-1.96,2.08-1.99,3.5l-1.1,52.18c-.04,1.7.94,3.25,2.49,3.95l156.45,70.29s.06.03.1.04l67.22,30.2Z"/>
      <path d="M518.3,790.51l12.35,5.55-11.66,3.02c-.36.09-.71.14-1.07.14-.58,0-1.14-.12-1.65-.34-.04,0-.07-.03-.1-.04-1.12-.52-2.01-1.51-2.34-2.79-.59-2.27.77-4.58,3.03-5.17l1.44-.37Z"/>
      <path d="M525.01,840.21c0-.17-.01-.35-.04-.53.03.18.04.35.04.53Z"/>
      <path d="M524.97,839.68c.03.18.04.36.04.53,0,.13-.01.27-.02.41-.16,1.7-1.36,3.21-3.11,3.68l-5.74,1.55.2-2.88-8.74-3.58,12.07-3.27c1.19-.32,2.4-.09,3.37.52.19.12.37.26.54.41.09.08.17.16.25.24s.16.17.23.26c.36.44.64.97.8,1.56.01.03.01.05.02.08.03.14.06.27.08.4,0,.03,0,.06,0,.09Z"/>
      <path d="M524.99,840.62l-2.34,33.75c-.1,1.37-.85,2.6-2.01,3.32-1.17.72-2.6.83-3.87.29l-47.67-20.15c.43.14.89.22,1.36.22.37,0,.74-.05,1.11-.15l11.86-3.21,31.18,13.18,1.53-22.02,5.74-1.55c1.75-.47,2.95-1.98,3.11-3.68Z"/>
      <path d="M524.96,839.59c-.02-.13-.05-.26-.08-.4.04.13.06.27.08.4Z"/>
      <path d="M524.06,837.55c-.07-.09-.15-.18-.23-.26.08.08.16.17.23.26Z"/>
      <path d="M523.83,837.29c-.08-.08-.16-.16-.25-.24.09.07.17.15.25.24Z"/>
      <path d="M523.58,837.05c-.17-.15-.35-.29-.54-.41.19.12.37.25.54.41Z"/>
      <path d="M522.38,836.29c.23.1.45.21.66.35-.97-.61-2.18-.84-3.37-.52l-12.07,3.27-205.29-84.2c-1.59-.66-2.63-2.2-2.63-3.92v-50.05l6.04-2.83c1.48-.7,2.43-2.2,2.43-3.84v53.88l214.23,87.86Z"/>
      <polygon points="516.34 842.97 516.14 845.85 483.43 854.69 470.78 849.35 507.6 839.39 516.34 842.97"/>
      <path d="M483.43,854.69l-11.86,3.21c-.37.1-.74.15-1.11.15-.47,0-.93-.08-1.36-.22-.1-.04-.21-.08-.31-.13-1.15-.49-2.06-1.48-2.41-2.78-.62-2.26.72-4.58,2.98-5.19l1.42-.38,12.65,5.34Z"/>
      <path d="M470.78,849.35l-1.42.38c-2.26.61-3.6,2.93-2.98,5.19.35,1.3,1.26,2.29,2.41,2.78l-105.73-44.68v-6.38c0-1.53-.81-2.93-2.14-3.69-.14-.08-.28-.15-.42-.2l110.28,46.6Z"/>
      <path d="M363.06,813.02v77.31c0,1.54-.82,2.95-2.16,3.7l-1.9,1.07-1.97-.93c-1.49-.7-2.44-2.2-2.44-3.84v-83.69c0-1.42.72-2.75,1.9-3.53l.18-.12c.13-.08.26-.14.39-.2.07-.03.15-.07.23-.09.15-.07.3-.12.46-.16.17-.04.34-.08.52-.1.19-.03.37-.04.56-.04.15,0,.31.01.46.03.06,0,.13.01.19.02.13.02.26.05.39.08.02,0,.04,0,.06.02.11.02.22.06.33.11.07.02.15.05.22.08.01,0,.02.01.02.01.14.05.28.12.42.2,1.33.76,2.14,2.16,2.14,3.69v6.38Z"/>
      <path d="M360.48,802.74c-.07-.03-.15-.06-.22-.08.08.01.15.04.22.08Z"/>
      <path d="M360.26,802.66c-.11-.05-.22-.09-.33-.11.11.03.22.06.33.11Z"/>
      <path d="M359.87,802.53c-.13-.03-.26-.06-.39-.08.13.02.26.05.39.08Z"/>
      <path d="M359.48,802.45c-.06-.01-.13-.02-.19-.02.06,0,.13.01.19.02Z"/>
      <path d="M357.03,894.17l1.97.93-51.14,28.63c.19-.48.29-1,.29-1.55v-8.33l46.44-26v2.48c0,1.64.95,3.14,2.44,3.84Z"/>
      <path d="M358.83,802.4c-.19,0-.37.01-.56.04.18-.03.37-.04.56-.04Z"/>
      <path d="M358.27,802.44c-.18.02-.35.06-.52.1.17-.04.34-.08.52-.1Z"/>
      <path d="M357.29,802.7c-.08.02-.16.06-.23.09.07-.04.15-.07.23-.09Z"/>
      <path d="M356.67,802.99l-.18.12c-1.18.78-1.9,2.11-1.9,3.53v7.44l-46.44,27.59v-2.41c0-2.34-1.89-4.23-4.23-4.23-.04,0-.08,0-.12,0l-.03-.62,52.9-31.43Z"/>
      <path d="M308.15,913.85v8.33c0,.55-.1,1.07-.29,1.55l-3.85,2.15c-.34.19-.7.33-1.08.42-1.87-.45-3.25-2.12-3.25-4.12v-5.7l2.07.95,6.4-3.58Z"/>
      <path d="M308.15,841.67v72.18l-6.4,3.58-2.07-.95v-74.63l2.3,1.18c1.29.66,2.85.62,4.1-.13l2.07-1.23Z"/>
      <path d="M308.15,839.26v2.41l-2.07,1.23c-1.25.75-2.81.79-4.1.13l-2.3-1.18v-2.59c0-2.3,1.83-4.16,4.12-4.22.04,0,.08,0,.12,0,2.34,0,4.23,1.89,4.23,4.23Z"/>
      <path d="M308.15,612.38v82.17c0,1.64-.95,3.14-2.43,3.84l-6.04,2.83v-95.45c0-1.44.74-2.79,1.95-3.57.09-.06.17-.11.26-.16.09-.04.18-.09.28-.13.28-.13.57-.22.86-.28.13-.03.25-.05.38-.07.34-.04.68-.04,1.02,0,.11.01.21.03.32.06.05,0,.1.02.15.03.1.02.2.05.29.08.17.05.34.12.5.19.18.09.35.18.52.29,1.21.78,1.94,2.12,1.94,3.56v6.61Z"/>
      <path d="M304.01,925.88l3.85-2.15c-.62,1.58-2.15,2.69-3.94,2.69-.34,0-.68-.04-.99-.12.38-.09.74-.23,1.08-.42Z"/>
      <path d="M305.19,601.73c-.09-.03-.19-.06-.29-.08.1.02.2.05.29.08Z"/>
      <path d="M304.75,601.62c-.11-.03-.21-.05-.32-.06.11.01.21.03.32.06Z"/>
      <path d="M303.77,834.42l.03.62c-2.29.06-4.12,1.92-4.12,4.22v2.59l-54.87-28.27v-6.94c0-1.44-.72-2.77-1.93-3.55-.16-.1-.32-.19-.48-.27.04.01.07.03.11.05l61.26,31.55Z"/>
      <path d="M303.41,601.56c-.13.02-.25.04-.38.07.12-.03.25-.05.38-.07Z"/>
      <path d="M303.03,601.63c-.29.06-.58.15-.86.28.27-.13.56-.22.86-.28Z"/>
      <path d="M302.93,926.3c-.32.08-.66.12-.99.12-.61,0-1.21-.13-1.78-.39l-59.59-27.48,1.79-.83c1.49-.69,2.45-2.19,2.45-3.84v-2.71l54.87,25.31v5.7c0,2,1.38,3.67,3.25,4.12Z"/>
      <path d="M301.89,602.04c-.09.05-.17.1-.26.16-1.21.78-1.95,2.13-1.95,3.57v6.57L25.07,736.92v252.23l211.27-97.97v2.7c0,1.65.96,3.15,2.46,3.85l1.77.82-209.66,97.22-8.31-3.83c-2.12-.98-4.63-.05-5.61,2.07-.26.57-.39,1.18-.39,1.77v-261.59c0-1.66.97-3.17,2.48-3.86l282.81-128.29Z"/>
      <path class="cls-11" d="M299.68,612.34v79.52l-193.47,90.78c-.3.13-.59.3-.85.51-.08.06-.16.12-.23.19-.2.17-.39.37-.55.59-.07.08-.13.16-.18.25-.03.03-.05.06-.06.1-.05.07-.09.14-.13.22-.04.07-.08.15-.12.23-.01.02-.02.05-.03.07-.05.12-.1.24-.14.37-.05.14-.09.29-.12.44-.03.13-.05.27-.07.4-.02.2-.03.4-.03.6l1.98,78.01c.04,1.41.78,2.71,1.97,3.47,1.19.75,2.69.86,3.98.29l85.18-37.73s.06-.02.09-.04l39.44-17.47v78.04l-211.27,97.97v-252.23l274.61-124.58Z"/>
      <path d="M299.68,691.86v9.36l-181.71,85.25-8.26-3.81c-1.15-.53-2.42-.5-3.5-.02l193.47-90.78Z"/>
      <path d="M244.81,891.17v2.71c0,1.65-.96,3.15-2.45,3.84l-1.79.83-1.77-.82c-1.5-.7-2.46-2.2-2.46-3.85v-87.24c0-1.48.77-2.85,2.03-3.62.16-.1.32-.18.49-.26.01,0,.02-.01.03-.01.18-.08.37-.14.55-.19s.37-.09.56-.12h.02c.18-.03.36-.04.55-.04h.02c.16,0,.32.01.48.03.14.01.27.04.4.07.04,0,.08.01.11.03.14.02.27.06.4.11.15.05.29.11.42.18.16.08.32.17.48.27,1.21.78,1.93,2.11,1.93,3.55v84.53Z"/>
      <path d="M241.98,802.64c-.13-.05-.26-.09-.4-.11.13.03.27.06.4.11Z"/>
      <path d="M241.47,802.5c-.13-.03-.26-.06-.4-.07.14.02.27.04.4.07Z"/>
      <path d="M241.07,802.43c-.16-.02-.32-.03-.48-.03.16,0,.32.01.48.03Z"/>
      <path d="M240.57,802.4c-.19,0-.37.01-.55.04.18-.03.37-.04.55-.04Z"/>
      <path d="M240,802.44c-.19.03-.38.07-.56.12.18-.06.37-.1.56-.12Z"/>
      <path d="M239.44,802.56c-.18.05-.37.11-.55.19.18-.08.36-.14.55-.19Z"/>
      <path d="M238.86,802.76c-.17.08-.33.16-.49.26-1.26.77-2.03,2.14-2.03,3.62v6.5l-39.44,17.47c.89-.4,1.64-1.12,2.08-2.07.98-2.13.05-4.64-2.07-5.62l-1.75-.81,43.7-19.35Z"/>
      <path d="M196.91,822.92c2.12.98,3.05,3.49,2.07,5.62-.44.95-1.19,1.67-2.08,2.07-.03.02-.06.03-.09.04-.53.23-1.1.35-1.68.35s-1.2-.13-1.77-.39l-8.51-3.93,10.31-4.57,1.75.81Z"/>
      <path d="M196.81,830.65l-85.18,37.73c-1.29.57-2.79.46-3.98-.29-1.19-.76-1.93-2.06-1.97-3.47l-1.98-78.01c.04,1.57.95,3.04,2.46,3.74l6.18,2.85,1.65,64.87,70.86-31.39,8.51,3.93c.57.26,1.17.39,1.77.39s1.15-.12,1.68-.35Z"/>
      <polygon points="195.16 822.11 184.85 826.68 112.34 793.2 112.24 789.16 117.97 786.47 195.16 822.11"/>
      <path d="M117.97,786.47l-5.73,2.69.1,4.04-6.18-2.85c-1.51-.7-2.42-2.17-2.46-3.74,0-.2.01-.4.03-.6.02-.14.04-.27.07-.4.03-.15.07-.29.12-.44.04-.13.09-.25.14-.37.01-.02.02-.05.03-.07.04-.08.08-.16.12-.23.04-.08.08-.15.13-.22.01-.04.03-.07.06-.1.05-.09.11-.17.18-.25.16-.22.35-.42.55-.59.07-.07.15-.13.23-.19.26-.21.55-.38.85-.51,1.08-.48,2.35-.51,3.5.02l8.26,3.81Z"/>
      <path class="cls-11" d="M105.36,783.15c-.08.06-.16.12-.23.19.07-.07.15-.13.23-.19Z"/>
      <path d="M104.58,783.93c-.07.08-.13.16-.18.25.05-.09.11-.17.18-.25Z"/>
      <path class="cls-11" d="M104.34,784.28c-.05.07-.09.14-.13.22.04-.08.08-.15.13-.22Z"/>
      <path d="M104.06,784.8c-.05.12-.1.24-.14.37.04-.13.09-.25.14-.37Z"/>
      <path d="M103.92,785.17c-.05.15-.09.29-.12.44.03-.15.07-.3.12-.44Z"/>
      <path d="M103.8,785.61c-.03.13-.05.26-.07.4.02-.13.04-.27.07-.4Z"/>
      <path d="M30.91,995.77l-8.3,3.85c-.56.27-1.17.4-1.78.4s-1.19-.13-1.74-.38h-.03c-.35-.17-.67-.38-.95-.62-.11-.09-.22-.18-.31-.28-.04-.04-.08-.08-.12-.13-.08-.08-.15-.17-.21-.26-.04-.05-.09-.11-.12-.17-.08-.1-.14-.2-.2-.31-.02-.03-.03-.06-.05-.09-.08-.14-.14-.28-.19-.43-.06-.13-.11-.27-.14-.4-.02-.07-.04-.13-.06-.19-.03-.12-.05-.25-.07-.38,0-.05-.01-.1-.01-.15-.02-.15-.03-.3-.03-.45,0-.59.13-1.2.39-1.77.98-2.12,3.49-3.05,5.61-2.07l8.31,3.83Z"/>
      <path d="M17.8,998.74c.09.1.2.19.31.28-.11-.09-.21-.18-.31-.28Z"/>
      <path d="M17.47,998.35c.06.09.13.18.21.26-.07-.08-.14-.17-.21-.26Z"/>
      <path d="M17.15,997.87c.06.11.12.21.2.31-.08-.1-.14-.21-.2-.31Z"/>
      <path d="M16.91,997.35c.05.15.11.29.19.43-.07-.14-.14-.28-.19-.43Z"/>
      <path d="M16.71,996.76c.02.06.04.12.06.19-.02-.06-.04-.12-.06-.19Z"/>
      <path d="M16.64,996.38c.02.13.04.26.07.38-.03-.13-.05-.26-.07-.38Z"/>
      <path d="M16.6,995.78c0,.15.01.3.03.45-.02-.15-.03-.3-.03-.45Z"/>
    </g>
    <text class="cls-6" transform="translate(751.53 958.52)"><tspan class="cls-12" x="0" y="0">RESOURCES </tspan><tspan class="cls-5" x="680.86" y="0">| 4:11</tspan></text>
  </g>
  <g id="Layer_5" data-name="Layer 5">
    <polygon class="cls-9" points="357.09 935.51 357.09 848.26 297.99 817.95 297.99 904.07 357.09 935.51"/>
    <polyline class="cls-10" points="242.3 935.51 297.99 962.4 357.09 935.51 297.99 904.07 242.3 935.51 242.3 853.19 297.99 817.95 297.99 904.07"/>
  </g>
</svg>